<svg xmlns="http://www.w3.org/2000/svg" viewBox="0 0 64 64" fill="none">
  <rect width="64" height="64" rx="8" fill="#08100B"/>
  <path d="M32 12c4.2 0 7.3 2 9 5 3.4.3 6.7 2.2 8.8 5.8 2.1 3.6 2 7.5.3 10.5 1.4 3.2 1.2 7-.6 10.6-2.1 3.6-5.4 5.5-8.8 5.8-2.1 2.8-5.4 4.7-9.7 4.7-4.2 0-7.4-2-9.1-5-3.4-.3-6.7-2.2-8.8-5.8-2.1-3.6-2-7.5-.3-10.5-1.4-3.2-1.2-7 .6-10.6 2.1-3.6 5.4-5.5 8.8-5.8 2.1-2.8 5.4-4.7 9.7-4.7Z" stroke="#76F79C" stroke-width="2.8" stroke-linejoin="round"/>
  <path d="m24 18.5 16 9.3v12.4M37.7 18l-16 9.4v12.5M15 34.3l18.7-10.9 11 6.3M23.8 49.7V28l10.9-6.3M49 31.7l-18.7 10.9-11-6.3M42.2 16v21.7l-10.9 6.3" stroke="#F2FFF4" stroke-width="2.2" stroke-linecap="round" stroke-linejoin="round" opacity=".85"/>
</svg>
